<?xml version="1.0" encoding="UTF-8"?>
<svg width="33px" height="32px" viewBox="0 0 33 32" version="1.1" xmlns="http://www.w3.org/2000/svg" xmlns:xlink="http://www.w3.org/1999/xlink">
    <title>62183EE9-5E39-48D6-9B82-07ED05B37008</title>
    <g id="Getinge_Screens" stroke="none" stroke-width="1" fill="none" fill-rule="evenodd">
        <g id="01.00_Getinge_OneScreen" transform="translate(-423.000000, -524.000000)" fill="#FFFFFF" fill-rule="nonzero">
            <g id="Actions" transform="translate(40.000000, 489.000000)">
                <g id="Group" transform="translate(356.353846, -0.000000)">
                    <g id="icon/leader" transform="translate(27.000000, 35.000000)">
                        <path d="M28.0888889,3.125 L25.6,3.125 L25.6,0.9375 C25.6,0.41975 25.1224178,0 24.5333333,0 L7.46666667,0 C6.87758222,0 6.4,0.41975 6.4,0.9375 L6.4,3.125 L3.91111111,3.125 C1.75452444,3.125 0,4.6670625 0,6.5625 L0,9.7480625 C0,11.9738125 1.59900444,13.98025 3.97888,14.74075 L7.18961778,15.766875 C7.59416889,15.8961875 8.09386667,16.3833125 8.1984,16.7503125 C8.33443556,17.228 8.17287111,17.7410625 7.77664,18.08925 C7.29180444,18.5153125 6.64732444,18.75 5.96167111,18.75 L5.33333333,18.75 C4.74424889,18.75 4.26666667,19.16975 4.26666667,19.6875 C4.26666667,20.20525 4.74424889,20.625 5.33333333,20.625 L5.96167111,20.625 C7.21706667,20.625 8.39744,20.1953125 9.28512,19.4150625 C9.52440889,19.20475 9.72622222,18.9683125 9.88942222,18.7145 C10.7307378,19.533 11.7075911,20.2529375 12.8,20.8471875 L12.8,26.375 L11.0222222,26.375 C10.7392711,26.375 10.4679822,26.47375 10.2680178,26.649625 L8.13468444,28.524625 C7.93457778,28.700375 7.82222222,28.9388125 7.82222222,29.1875 L7.82222222,31.0625 C7.82222222,31.58025 8.29980444,32 8.88888889,32 L23.1111111,32 C23.7001956,32 24.1777778,31.58025 24.1777778,31.0625 L24.1777778,29.1875 C24.1777778,28.9388125 24.0654222,28.700375 23.8653156,28.524625 L21.7319822,26.649625 C21.5320178,26.47375 21.2607289,26.375 20.9777778,26.375 L19.2,26.375 L19.2,20.8471875 C20.29248,20.252875 21.2692622,19.5329375 22.1105778,18.7144375 C22.2737778,18.96825 22.47552,19.2046875 22.7148089,19.415 C23.60256,20.1953125 24.7829333,20.625 26.0383289,20.625 L26.6666667,20.625 C27.2557511,20.625 27.7333333,20.20525 27.7333333,19.6875 C27.7333333,19.16975 27.2557511,18.75 26.6666667,18.75 L26.0383289,18.75 C25.3526756,18.75 24.7081956,18.5153125 24.22336,18.08925 C23.8272,17.7410625 23.6655644,17.228 23.8016,16.75025 C23.9061333,16.38325 24.40576,15.8961875 24.8103111,15.766875 L28.02112,14.74075 C30.4009956,13.98025 32,11.9738125 32,9.7480625 L32,6.5625 C32,4.6670625 30.2454756,3.125 28.0888889,3.125 Z M4.70791111,12.978625 C3.168,12.4865 2.13333333,11.18825 2.13333333,9.7480625 L2.13333333,6.5625 C2.13333333,5.7009375 2.93084444,5 3.91111111,5 L6.4,5 L6.4,10.75275 C6.4,11.7426875 6.54208,12.7145625 6.81052444,13.6505625 L4.70791111,12.978625 Z M20.5359644,28.25 L22.0444444,29.5758125 L22.0444444,30.125 L9.95555556,30.125 L9.95555556,29.5758125 L11.4640356,28.25 L20.5359644,28.25 Z M14.9333333,26.375 L14.9333333,21.25 L17.0666667,21.25 L17.0666667,26.375 L14.9333333,26.375 Z M23.4666667,10.75275 C23.4666667,14.3020625 21.3214578,17.5839375 17.8503822,19.375 L14.1496889,19.375 C10.6785422,17.5839375 8.53333333,14.3020625 8.53333333,10.75275 L8.53333333,10 L23.4666667,10 L23.4666667,10.75275 Z M23.4666667,8.125 L8.53333333,8.125 L8.53333333,6.25 L23.4666667,6.25 L23.4666667,8.125 Z M23.4666667,4.375 L8.53333333,4.375 L8.53333333,1.875 L23.4666667,1.875 L23.4666667,4.375 Z M29.8666667,9.7480625 C29.8666667,11.18825 28.832,12.4865 27.2920889,12.978625 L25.1895467,13.6505625 C25.45792,12.7145625 25.6,11.742625 25.6,10.75275 L25.6,5 L28.0888889,5 C29.0691556,5 29.8666667,5.7009375 29.8666667,6.5625 L29.8666667,9.7480625 Z" id="Shape"></path>
                    </g>
                </g>
            </g>
        </g>
    </g>
</svg>