<svg xmlns="http://www.w3.org/2000/svg" width="24" height="24" viewBox="0 0 24 24">
    <g fill="none" fill-rule="evenodd">
        <g>
            <g>
                <g>
                    <g>
                        <path fill="#2DC8FF" d="M10 0c5.523 0 10 4.477 10 10s-4.477 10-10 10S0 15.523 0 10 4.477 0 10 0zm0 2c-4.418 0-8 3.582-8 8s3.582 8 8 8 8-3.582 8-8-3.582-8-8-8zm0 11.5c.552 0 1 .448 1 1s-.448 1-1 1-1-.448-1-1 .448-1 1-1zm.15-9c1.739.002 3.148 1.411 3.15 3.15-.068 1.143-.643 2.195-1.569 2.869-.492.453-.793.748-.793 1.069 0 .434-.353.787-.788.787-.435 0-.787-.353-.787-.787.083-.898.56-1.714 1.3-2.227.66-.609 1.062-1.028 1.062-1.711 0-.87-.705-1.575-1.575-1.575S8.575 6.78 8.575 7.65c0 .435-.353.787-.787.787-.435 0-.788-.352-.788-.787.002-1.739 1.411-3.148 3.15-3.15z" transform="translate(-1185 -37) translate(1140 25) translate(45 12) translate(2 2)"/>
                    </g>
                </g>
            </g>
        </g>
    </g>
</svg>
